<svg width="512" height="512" viewBox="0 0 512 512" fill="none" xmlns="http://www.w3.org/2000/svg">
  <rect width="512" height="512" rx="120" fill="#090C1D"/>
  <g transform="translate(86 70) scale(1.78)">
    <path d="M185.44 83.2499C184.125 83.4784 180.041 83.3667 178.483 83.3587L164.775 83.3072L145.208 83.2502C142.02 83.2477 130.021 84.8894 134.321 78.1994C135.338 77.3537 142.768 77.6984 144.688 77.7082L160.06 77.7169L179.533 77.7232C182.945 77.7422 187.19 77.6712 190.525 77.9179L190.995 78.0337C191.1 79.2574 190.943 81.7789 190.853 83.0599C189.956 95.9714 184.808 108.508 176.478 118.364C166.403 130.205 152.016 137.53 136.513 138.709C123.066 139.797 108.414 138.622 94.8507 139.038C90.8967 139.16 92.1577 135.736 93.3847 133.539L119.873 133.489C125.523 133.484 130.933 133.549 136.55 133.115C161.563 131.185 181.963 110.604 184.983 85.9224C185.076 85.1644 185.235 83.9567 185.44 83.2499Z" fill="#CE60E0"/>
    <path d="M185.44 83.2499C184.125 83.4784 180.04 83.3667 178.483 83.3587L164.775 83.3072L145.208 83.2502C142.02 83.2477 130.02 84.8894 134.32 78.1994C135.338 77.3537 142.768 77.6984 144.688 77.7082L160.06 77.7169L179.533 77.7232C182.945 77.7422 187.19 77.6712 190.525 77.9179C185.788 78.8947 173.945 78.2557 168.32 78.4397C168.5 79.7607 168.665 81.0359 168.908 82.3477C172.89 83.2622 181.368 82.9672 185.63 82.8399C185.575 82.9727 185.523 83.1544 185.44 83.2499Z" fill="#987CEF"/>
    <path d="M74.3368 69.6547C74.7058 72.1452 74.818 74.4874 75.092 76.9859L75.4748 76.9429C75.8065 76.5497 76.0968 76.2529 76.4535 75.8897C77.139 76.4647 77.5473 76.7194 78.4065 76.5864C79.5348 75.2039 79.6188 70.6614 79.7328 68.7184L79.9195 68.6047L80.1403 69.6259C79.761 75.7232 79.6765 84.9114 79.8433 91.1042C80.2615 106.627 78.4365 118.05 66.098 128.975C57.59 136.509 48.1295 139.362 36.8073 138.732C31.3635 138.429 23.4888 136.421 19.136 133.143C8.493 127.659 0.2785 113.323 0 101.517C1.73875 101.499 3.5065 101.522 5.248 101.529C6.38725 114.101 12.0258 121.504 22.1033 128.435C22.5265 128.541 24.633 129.561 25.208 129.835C37.2713 135.588 50.3478 133.827 61.0493 125.872C80.1228 111.693 71.74 89.3022 74.2983 69.9337L74.3368 69.6547Z" fill="#A87AED"/>
    <path d="M0 101.517C1.73875 101.499 3.5065 101.522 5.248 101.529C6.38725 114.101 12.0258 121.504 22.1033 128.435C22.623 130.286 30.48 132.249 32.504 132.781C33.6943 133.094 37.6658 133.345 38.34 133.76C38.6835 135.003 38.0428 136.814 37.582 138.001C36.538 138.832 30.4778 137.364 29.09 137.129C26.5415 136.696 21.2678 133.251 19.136 133.143C8.493 127.659 0.2785 113.323 0 101.517Z" fill="#63B8F5"/>
    <path d="M95.804 29.8564C97.2262 28.3962 99.8032 26.7284 101.558 25.6512C127.87 9.50066 162.433 16.3059 180.095 41.7964C181.063 43.1914 182.005 44.6037 182.938 46.0384L178.665 48.9349C169.405 35.3899 158.625 26.6164 142.155 23.4909C128.368 20.9252 114.127 23.9079 102.528 31.7899C100.883 32.9137 99.2667 34.2417 97.714 35.4974L97.758 35.0817C99.06 33.2384 100.476 32.5302 102.337 31.3342C104.802 29.7497 103.093 28.9009 103.478 27.3742C102.613 26.7649 102.524 26.3789 101.64 26.2229C99.8005 27.4924 97.9725 28.7789 96.1567 30.0824L95.804 29.8564Z" fill="#46CFF6"/>
    <path d="M95.804 29.8564L96.1567 30.0824C97.9725 28.7789 99.8005 27.4924 101.64 26.2229C102.524 26.3789 102.613 26.7649 103.478 27.3742C103.093 28.9009 104.802 29.7497 102.337 31.3342C100.476 32.5302 99.06 33.2384 97.758 35.0817L97.714 35.4974C96.107 37.1962 94.171 38.8589 92.7047 40.5899C85.3127 49.3164 81.607 58.4129 80.1402 69.6259L79.9195 68.6047L79.7327 68.7184C79.6187 70.6614 79.5347 75.2039 78.4065 76.5864C77.5472 76.7194 77.139 76.4647 76.4535 75.8897C76.0967 76.2529 75.8065 76.5497 75.4747 76.9429L75.092 76.9859C74.818 74.4874 74.7057 72.1452 74.3367 69.6547C74.347 68.0509 74.4547 67.3347 74.7227 65.7389C74.6047 64.9352 74.102 63.4254 74.0847 63.0274C73.9035 58.8204 73.5025 51.2612 74.134 47.3192C75.0075 46.7957 76.295 41.7982 76.845 40.4114C77.6962 38.2659 78.9595 35.7419 79.567 33.5769C80.3962 37.3512 79.2217 43.6984 79.8015 47.7857C79.871 48.2749 80.1387 48.3604 80.5027 48.5984C84.464 41.6857 89.207 34.5867 95.804 29.8564Z" fill="#63B8F5"/>
    <path d="M74.134 47.3192C75.0075 46.7957 76.295 41.7982 76.845 40.4114C77.6962 38.2659 78.9595 35.7419 79.567 33.5769C80.3962 37.3512 79.2217 43.6984 79.8015 47.7857C79.871 48.2749 80.1387 48.3604 80.5027 48.5984C78.2727 53.9314 75.547 59.9579 74.7227 65.7389C74.6047 64.9352 74.102 63.4254 74.0847 63.0274C73.9035 58.8204 73.5025 51.2612 74.134 47.3192Z" fill="#28425F"/>
    <path d="M74.1728 0.128169C76.3145 -0.0405813 77.5492 -0.0185823 79.673 0.0569177C79.8627 5.58217 79.9132 11.1114 79.824 16.6392C79.856 20.5742 80.082 30.0682 79.567 33.5769C78.9595 35.7419 77.6962 38.2659 76.845 40.4114C76.295 41.7982 75.0075 46.7957 74.134 47.3192C74.193 37.1874 73.7372 26.7652 73.945 16.5924C74.0275 12.5524 73.829 8.24242 74.0817 4.22942C73.9825 2.65417 74.0535 1.71517 74.1728 0.128169Z" fill="#19E0EA"/>
    <path d="M74.1728 0.128169C76.3145 -0.0405813 77.5492 -0.0185823 79.673 0.0569177C79.8627 5.58217 79.9132 11.1114 79.824 16.6392C79.4912 17.7232 79.497 19.7209 79.4502 20.9362C79.0095 19.0299 79.5545 12.1692 79.0288 10.9367C79.0045 11.5954 79.0018 11.5549 78.734 12.1619C77.294 12.0827 77.2428 10.4712 75.9963 9.21342C75.6848 9.69992 75.581 10.0894 75.394 10.6292L75.1202 10.6237C74.8555 9.55492 74.824 9.28192 74.7938 8.22742L74.788 7.96142C74.0928 8.90792 74.4525 15.4924 74.3035 17.3084C74.0465 13.2659 74.4933 8.41617 74.1115 4.51567L74.0817 4.22942C73.9825 2.65417 74.0535 1.71517 74.1728 0.128169Z" fill="#04EADE"/>
  </g>
</svg>
